<?xml version="1.0" encoding="UTF-8"?>
<svg xmlns="http://www.w3.org/2000/svg" xmlns:xlink="http://www.w3.org/1999/xlink" width="122pt" height="140pt" viewBox="0 0 122 140" version="1.1">
<g id="surface1">
<path style=" stroke:none;fill-rule:nonzero;fill:rgb(94.509804%,56.078431%,14.901961%);fill-opacity:1;" d="M 35.507812 87.261719 C 35.507812 87.261719 37.886719 96.132812 34.367188 118.347656 C 33.738281 122.332031 32.808594 126.40625 32.335938 129.742188 C 26.382812 129.742188 26.0625 137.527344 27.328125 137.527344 L 34.425781 137.527344 C 38.957031 137.527344 44.492188 124.5625 47.484375 106.566406 C 50.476562 88.574219 35.507812 87.261719 35.507812 87.261719 Z M 79.707031 101.660156 C 79.707031 101.660156 87.40625 106.402344 87.121094 117.53125 C 87.007812 121.929688 86.277344 125.660156 85.917969 129.289062 C 79.710938 129.289062 79.6875 137.007812 81.496094 137.007812 L 87.785156 137.007812 C 90.914062 137.007812 97.957031 124.726562 99.238281 108.695312 C 100.519531 92.664062 79.707031 101.660156 79.707031 101.660156 Z M 79.707031 101.660156 "/>
<path style=" stroke:none;fill-rule:nonzero;fill:rgb(100%,80%,30.588235%);fill-opacity:1;" d="M 122 32.847656 C 122 13.707031 107.964844 3.890625 91.5 3.890625 C 89.628906 3.890625 88.109375 5.628906 88.109375 7.777344 C 88.109375 9.925781 89.628906 11.667969 91.5 11.667969 C 97.613281 11.667969 114.261719 15.300781 114.261719 32.847656 C 114.261719 44.054688 108.953125 54.089844 101.488281 56.113281 C 100.929688 55.828125 100.316406 55.707031 99.761719 55.367188 C 75.230469 40.132812 54.15625 58.875 48.164062 54.238281 C 42.226562 49.640625 46.335938 41.578125 38.59375 33.847656 C 37.472656 26.6875 34.957031 16.4375 32.511719 16.4375 C 30.652344 16.4375 28.226562 23.535156 26.617188 30.65625 C 24.613281 25.285156 21.996094 19.9375 20.3125 19.9375 C 18.144531 19.9375 15.980469 28.777344 14.910156 36.40625 C 9.21875 40.867188 5.0625 47.332031 5.0625 54.9375 C 5.0625 65.4375 18.789062 67.992188 23.363281 68.203125 C 27.9375 68.414062 33.609375 82.054688 35.511719 87.929688 C 39.722656 104.910156 42.460938 121.757812 44.65625 131.417969 C 39.066406 131.417969 38.542969 139.625 40.085938 139.625 C 42.503906 139.625 46.707031 139.613281 47.628906 139.625 C 52.308594 139.679688 54.492188 121.324219 54.492188 105.214844 C 54.492188 104.390625 54.457031 102.777344 54.457031 102.777344 C 54.457031 102.777344 60.996094 104.738281 74.917969 101.964844 C 83.199219 100.316406 91.964844 105.269531 94.390625 114.265625 C 96.175781 120.894531 99.132812 127.121094 100.722656 131.703125 C 95.335938 131.703125 95.484375 139.625 97.046875 139.625 C 99.714844 139.625 103.152344 139.679688 104.445312 139.625 C 109.421875 139.414062 106.625 110.171875 107.9375 100.359375 C 109.246094 90.550781 112.230469 78.667969 107.160156 66.148438 C 118.125 59.25 122 44.742188 122 32.847656 Z M 122 32.847656 "/>
<path style=" stroke:none;fill-rule:nonzero;fill:rgb(16.078431%,18.431373%,20%);fill-opacity:1;" d="M 23.363281 45.765625 C 23.363281 47.699219 21.996094 49.265625 20.3125 49.265625 C 18.628906 49.265625 17.261719 47.699219 17.261719 45.765625 C 17.261719 43.832031 18.628906 42.265625 20.3125 42.265625 C 21.996094 42.265625 23.363281 43.832031 23.363281 45.765625 Z M 23.363281 45.765625 "/>
<path style=" stroke:none;fill-rule:nonzero;fill:rgb(90.588235%,35.294118%,43.921569%);fill-opacity:1;" d="M 10.113281 50.011719 C 7.816406 51.65625 7.816406 56.921875 6.671875 56.921875 C 5.527344 56.921875 3.234375 53.824219 3.234375 50.011719 C 3.230469 46.195312 12.933594 47.988281 10.113281 50.011719 Z M 10.113281 50.011719 "/>
<path style=" stroke:none;fill-rule:nonzero;fill:rgb(99.607843%,90.588235%,72.156863%);fill-opacity:1;" d="M 22.292969 55.777344 C 22.152344 55.878906 21.988281 55.917969 21.8125 55.878906 C 21.75 55.863281 16.566406 54.941406 13.1875 56.445312 C 12.75 56.640625 12.03125 56.359375 11.785156 55.703125 C 11.542969 55.050781 11.863281 54.285156 12.300781 54.089844 C 17.183594 51.878906 21.984375 53.179688 22.246094 53.242188 C 22.714844 53.355469 22.90625 53.980469 22.882812 54.6875 C 22.867188 55.132812 22.53125 55.601562 22.292969 55.777344 Z M 20.691406 64.875 C 20.527344 64.910156 20.351562 64.867188 20.214844 64.753906 C 20.164062 64.714844 15.703125 61.527344 12.074219 61.4375 C 11.605469 61.425781 11.039062 60.835938 11.039062 60.109375 C 11.039062 59.386719 11.601562 58.808594 12.070312 58.816406 C 17.332031 58.910156 21.300781 62.28125 21.523438 62.460938 C 21.917969 62.777344 21.875 63.449219 21.613281 64.109375 C 21.449219 64.523438 20.972656 64.816406 20.691406 64.875 Z M 20.691406 64.875 "/>
<path style=" stroke:none;fill-rule:nonzero;fill:rgb(94.509804%,56.078431%,14.901961%);fill-opacity:1;" d="M 26.617188 30.648438 C 26.617188 30.648438 27.878906 30.496094 29.527344 30.777344 C 30.261719 28.988281 31.511719 27.328125 31.511719 27.328125 C 31.511719 27.328125 32.460938 29.925781 32.816406 31.914062 C 32.902344 32.378906 33.558594 32.367188 33.910156 32.648438 C 33.910156 32.648438 34.039062 19.179688 30.984375 17.730469 C 30.988281 17.722656 28.425781 22.101562 26.617188 30.648438 Z M 14.90625 36.398438 C 14.90625 36.398438 16.210938 35.363281 17.898438 34.167969 C 18.636719 31.742188 19.824219 28.984375 19.824219 28.984375 C 19.824219 28.984375 20.867188 31.324219 20.996094 32.132812 C 21.707031 31.691406 21.707031 31.722656 22.359375 31.394531 C 22.359375 31.394531 21.972656 22.503906 18.636719 21.566406 C 18.636719 21.566406 16.15625 26.902344 14.90625 36.398438 Z M 14.90625 36.398438 "/>
<path style=" stroke:none;fill-rule:nonzero;fill:rgb(100%,86.666667%,60%);fill-opacity:1;" d="M 62.523438 91.949219 C 53.546875 94.164062 54.460938 102.769531 54.460938 102.769531 C 54.460938 102.769531 61 104.730469 74.921875 101.957031 C 78.480469 101.277344 82.136719 101.785156 85.449219 103.425781 C 80.003906 91.574219 70.828125 89.894531 62.523438 91.949219 Z M 62.523438 91.949219 "/>
<path style=" stroke:none;fill-rule:nonzero;fill:rgb(94.509804%,56.078431%,14.901961%);fill-opacity:1;" d="M 49.769531 54.867188 C 51.382812 57.496094 57.890625 64.078125 59.070312 63.265625 C 60.21875 62.476562 61.070312 55.273438 60.230469 52.742188 C 55.726562 54.136719 52.148438 55.300781 49.769531 54.867188 Z M 73.574219 65.324219 C 75.683594 65.863281 78.679688 53.742188 78.351562 49.292969 C 73.441406 49.359375 68.929688 50.289062 64.914062 51.378906 C 66.050781 55.578125 71.53125 64.804688 73.574219 65.324219 Z M 82.476562 49.449219 C 82.617188 52.261719 85.804688 59.574219 86.832031 60.09375 C 87.871094 60.628906 92.539062 54.964844 93.152344 52.078125 C 89.707031 50.683594 86.117188 49.796875 82.476562 49.449219 Z M 82.476562 49.449219 "/>
</g>
</svg>
